<?xml version="1.0" encoding="utf-8" ?>
<svg xmlns="http://www.w3.org/2000/svg" xmlns:xlink="http://www.w3.org/1999/xlink" width="1024" height="1024">
	
	<path fill="#ea545a" d="M341.661 275.214C349.906 274.621 358.348 274.856 366.62 274.852C394.078 274.841 420.729 276.561 447.539 283.028C465.521 287.366 483.015 293.467 501.076 297.566C569.964 313.203 625.564 306.566 692.25 285.689C684.736 295.787 675.947 305.243 667.393 314.472C646.24 337.295 624.139 358.265 599.86 377.742C579.555 394.032 557.859 409.199 539.737 427.972C531.724 436.272 523.523 446.501 520.464 457.851C517.64 468.329 518.71 480.285 518.733 491.081L518.82 527.308C518.878 559.604 518.445 591.955 519.039 624.242C525.533 631.844 534.448 638.325 541.804 645.198C578.086 679.098 608.368 697.622 655.141 714.716C668.36 719.547 681.83 723.65 695.129 728.253C694.921 739.24 695.119 750.257 695.133 761.248C695.141 767.615 695.811 774.876 694.34 781.072C693.753 783.546 692.567 785.222 690.987 787.174C686.666 790.777 683.279 791.108 677.863 791.135L454.461 791.069L379.399 791.098C366.786 791.112 353.545 791.954 340.991 790.966C337.354 790.679 333.528 790.197 330.878 787.473C329.138 785.685 327.605 783.587 327.07 781.108C325.698 774.748 326.46 767.103 326.483 760.593L326.514 728.333C334.765 726.042 342.999 723.194 351.141 720.539C403.639 703.415 442.18 681.775 482.86 644.329C489.872 637.874 497.67 631.667 503.99 624.558C504.785 589.149 504.025 553.572 504.039 518.146L504.1 486.033C504.12 477.425 504.918 468.008 503.006 459.588C496.589 431.328 454.321 401.947 432.581 384.789Q414.991 371.156 398.425 356.296C373.706 334.005 343.203 303.618 324.618 276.02Q333.136 275.547 341.661 275.214Z"/>
	<path fill="#f6f6f6" d="M511.944 155.646C520.439 144.253 528.597 133.361 539.027 123.598C570.61 94.0339 605.904 79.4117 649.699 80.9958Q651.195 81.0419 652.689 81.1252Q654.183 81.2086 655.675 81.3293Q657.166 81.4499 658.654 81.6077Q660.143 81.7656 661.626 81.9605Q663.11 82.1554 664.589 82.3873Q666.067 82.6191 667.539 82.8878Q669.011 83.1565 670.477 83.4619Q671.942 83.7672 673.399 84.109Q674.855 84.4508 676.303 84.8289Q677.751 85.2069 679.189 85.621Q680.628 86.0351 682.055 86.4849Q683.482 86.9348 684.898 87.4201Q686.313 87.9054 687.716 88.4258Q689.12 88.9463 690.509 89.5016Q691.899 90.057 693.274 90.6468Q694.65 91.2366 696.01 91.8606Q697.37 92.4846 698.714 93.1423Q700.059 93.8 701.386 94.4911Q702.713 95.1821 704.023 95.9061Q705.333 96.63 706.624 97.3865Q707.915 98.1429 709.187 98.9313Q710.459 99.7197 711.711 100.54Q712.963 101.359 714.194 102.21Q715.425 103.061 716.635 103.943Q717.844 104.824 719.031 105.735Q720.218 106.646 721.382 107.587Q722.546 108.528 723.687 109.497Q724.827 110.466 725.942 111.464Q727.058 112.461 728.148 113.486Q729.239 114.511 730.303 115.563Q731.368 116.615 732.405 117.693Q733.443 118.771 734.454 119.875C758.932 146.488 765.943 180.229 764.367 215.37C760.56 300.238 698.159 361.677 635.775 411.771C617.772 426.227 598.077 439.27 581.091 454.877C577.597 458.087 568.323 466.124 568.643 471.377C568.663 471.709 568.687 472.043 568.758 472.368C569.393 475.28 573.897 478.724 576.158 480.568C588.608 490.721 602.325 499.59 615.196 509.23Q630.915 521.099 645.82 533.975Q660.725 546.851 674.752 560.678C709.263 595.103 736.145 637.317 742.731 686.312C745.398 706.158 745.161 726.051 745.171 746.025L745.221 819.474Q730.633 819.302 716.044 819.331L716.152 746.643C716.172 729.93 716.71 713.065 714.998 696.418C707.257 621.147 649.37 571.655 592.992 528.528C581.484 519.725 569.176 511.737 557.994 502.566C548.94 495.141 541.098 486.139 539.984 474.001C539.075 464.101 541.59 455.512 547.559 447.614C555.43 437.199 566.55 429.138 576.697 421.065L606.903 397.319C636.226 374.331 665.389 349.86 689.262 321.107C720.331 283.686 739.892 242.109 735.063 192.245C732.764 168.496 723.505 146.334 704.77 130.955C682.997 113.083 656.455 107.641 628.878 110.285C622.291 110.757 615.607 112.135 609.261 113.938C560.725 127.735 535.622 169.281 512.535 210.395C499.12 187.73 485.946 164.828 467.007 146.242C443.007 122.69 413.051 109.374 379.243 109.824C354.034 110.159 329.014 119.808 311.426 138.154C292.748 157.635 286.937 183.825 287.458 210.108C289.065 291.094 357.273 351.404 416.297 397.739Q431.217 409.293 446.289 420.649C453.52 426.145 460.987 431.553 467.508 437.898C475.984 446.146 482.246 455.692 482.343 467.866C482.415 476.84 479.961 484.899 474.416 491.995C465.452 503.466 436.408 522.828 423.251 533.103Q396.575 553.919 372.628 577.825C339.678 611.156 313.237 647.962 307.776 695.727C306.052 710.811 306.621 726.139 306.629 741.297L306.794 820.001L277.632 820.024C278.022 785.416 277.272 750.799 277.642 716.199C277.814 700.191 278.894 683.91 282.827 668.342C297.867 608.82 348.231 555.924 394.647 518.477C406.196 509.16 418.244 500.364 430.15 491.507C436.365 486.884 443.456 482.333 448.91 476.849C450.934 474.815 453.177 472.052 453.02 468.996C452.799 464.701 448.69 460.296 445.764 457.394C436.902 448.605 425.739 441.597 415.793 434.073C402.5 424.017 389.507 413.292 376.782 402.521C320.251 354.671 265.431 299.181 259.087 221.216C256.223 186.015 262.751 150.597 286.295 123.059C307.693 98.0311 339.161 83.6522 371.768 81.2034C382.92 79.9018 395.786 81.0318 406.719 82.9788C451.417 90.9386 486.426 119.266 511.944 155.646Z"/>
	<path fill="#9c571d" d="M778.078 892.694C778.089 893.939 777.758 894.961 777.153 896.041C775.559 898.886 772.661 900.409 769.615 901.254C761.885 903.396 745.06 902.025 736.338 902.022L677.855 902.034L403.503 902.032L308.073 902.035C292.513 902.038 275.652 902.942 260.216 901.893C257.299 901.695 253.251 901.363 250.766 899.818C248.173 898.206 246.536 895.491 245.884 892.559C244.527 886.463 245.64 874.551 245.597 867.98C245.545 860.016 244.769 851.6 245.432 843.708C245.617 841.503 246.173 839.339 247.411 837.48C249.851 833.818 254.018 832.149 258.212 831.469C263.853 830.553 270.014 831.072 275.737 831.075L306.028 831.082L415.258 831.05L648.804 830.985L728.322 830.998C739.715 831.008 751.217 830.619 762.594 830.916C766.423 831.016 770.62 831.729 773.746 834.096C776.474 836.163 777.746 838.968 778.104 842.292C778.899 850.779 778.354 859.745 778.355 868.282C778.357 876.271 778.931 884.767 778.078 892.694Z"/>
	<path fill="#854715" d="M778.104 842.292C778.899 850.779 778.354 859.745 778.355 868.282C778.357 876.271 778.931 884.767 778.078 892.694C777.544 883.9 777.838 874.983 777.848 866.172C733.435 872.351 689.821 877.702 644.881 874.263C635.862 873.572 626.917 872.878 617.991 871.35L618.708 870.869L618.039 871.736L618.472 870.959C622.978 870.58 628.116 871.844 632.685 872.235Q644.027 873.128 655.402 873.349C679.385 873.826 703.589 871.685 727.439 869.28Q741.355 867.936 755.16 865.729C760.976 864.792 767.222 863.213 773.1 862.964C774.434 862.907 775.814 863.569 777.025 864.065L777.629 864.318C778.667 857.203 777.387 849.532 778.104 842.292Z"/>
	<path fill="#854715" d="M263.316 842.221C273.293 841.687 283.408 841.958 293.397 841.981C321.359 842.046 349.324 843.207 377.286 843.468L441.649 844.309C482.761 844.436 523.849 844.158 564.943 846.033C598.61 847.57 632.112 852.303 665.876 852.401C684.907 852.455 703.445 848.571 722.335 846.962C738.658 845.571 755.268 845.943 771.652 845.077C773.982 844.953 776.032 844.696 777.844 846.34C777.793 847.597 777.742 847.834 776.885 848.827C773.959 852.223 767.047 851.499 762.876 851.67C753.946 852.274 745.07 853.58 736.152 854.36C712.853 856.398 689.668 857.931 666.267 857.896C650.501 857.873 635.106 856.481 619.405 855.469C585.516 853.285 551.336 850.384 517.398 849.494Q477.256 848.208 437.1 848.988C419.817 849.328 402.59 850.517 385.292 850.489C371.215 850.466 251.852 847.663 247.217 845.071L247.094 844.106C251.847 842.313 258.227 842.508 263.316 842.221Z"/>
	<path fill="#854715" d="M542.586 884.726C549.832 884.38 557.319 884.838 564.58 885.02Q589.818 885.654 615.001 887.447Q662.707 891.192 710.524 893.034Q722.418 893.469 734.314 893.082Q746.21 892.694 758.051 891.485C764.001 890.879 770.018 888.847 775.968 888.813C776.973 889.642 776.678 889.117 776.882 890.372C776.767 890.51 776.669 890.663 776.539 890.786C764.506 902.151 662.834 895.165 641.53 893.131C622.033 891.869 602.539 890.15 583.01 889.438C560.503 888.618 538.185 888.898 515.68 889.208C500.425 889.418 485.179 889.471 469.952 890.529C458.903 891.297 442.561 893.328 431.876 895.62C424.498 897.203 416.238 901.192 408.708 901.043C408.818 900.829 409.298 899.87 409.444 899.71C411.388 897.582 417.676 895.727 420.42 894.843C456.583 883.195 504.368 885.713 542.586 884.726Z"/>
	<path fill="#854715" d="M345.889 872.221C347.139 871.989 348.001 872.118 349.236 872.317L349.593 873.684L350.061 872.817L349.433 873.551C334.736 879.432 270.764 877.635 252.625 877.061C250.901 877.099 249.278 876.976 247.566 876.781L247.662 876.513C267.843 873.484 287.458 874.289 307.774 874.054C320.449 873.907 333.234 873.008 345.889 872.221Z"/>
	<path fill="#854715" d="M266.453 861.21C276.265 860.166 286.617 860.965 296.501 861.017C309.952 861.089 323.865 860.159 337.202 861.957C338.046 862.071 337.737 861.875 338.199 862.479C332.354 864.947 324.134 864.124 317.875 864.018C295.401 863.766 272.821 863.843 250.344 864.071L249.699 864.759L249.513 863.861L246.743 863.865L246.725 863.35C251.653 860.808 260.837 861.365 266.453 861.21Z"/>
</svg>
